<svg width="138" height="24" viewBox="0 0 138 24" fill="none" xmlns="http://www.w3.org/2000/svg">
<path d="M7.10059 6.53516C9.21973 6.53516 10.9189 6.97949 12.1982 7.86816C12.8916 8.34668 13.2383 8.91309 13.2383 9.56738C13.2383 9.94824 13.1211 10.3047 12.8867 10.6367C12.5645 11.0762 12.125 11.2959 11.5684 11.2959C11.207 11.2959 10.8066 11.125 10.3672 10.7832C9.37109 10.0117 8.2627 9.62598 7.04199 9.62598C5.45996 9.62598 4.66895 10.0752 4.66895 10.9736C4.66895 11.501 4.95215 11.9111 5.51855 12.2041C5.7041 12.292 6.02148 12.4092 6.4707 12.5557C9.11719 13.3662 10.7529 13.9277 11.3779 14.2402C13.0088 15.0508 13.8242 16.3447 13.8242 18.1221C13.8242 19.7725 13.1699 21.0371 11.8613 21.916C10.7188 22.6777 9.1709 23.0586 7.21777 23.0586C4.98145 23.0586 3.14062 22.5508 1.69531 21.5352C0.757812 20.8711 0.289062 20.1777 0.289062 19.4551C0.289062 19.1133 0.401367 18.7812 0.625977 18.459C0.938477 18.0195 1.35352 17.7998 1.87109 17.7998C2.28125 17.7998 2.66699 17.9707 3.02832 18.3125C4.12207 19.3574 5.50879 19.8799 7.18848 19.8799C8.93652 19.8799 9.81055 19.4111 9.81055 18.4736C9.81055 17.8389 9.37109 17.3066 8.49219 16.877C7.92578 16.6133 6.56348 16.1494 4.40527 15.4854C2.06152 14.7725 0.889648 13.3418 0.889648 11.1934C0.889648 9.51367 1.69531 8.23926 3.30664 7.37012C4.33203 6.81348 5.59668 6.53516 7.10059 6.53516ZM24.415 6.53516C26.5244 6.53516 28.1943 7.14062 29.4248 8.35156C30.0596 8.97656 30.377 9.60645 30.377 10.2412C30.377 10.7197 30.1816 11.1299 29.791 11.4717C29.4395 11.7744 29.0391 11.9258 28.5898 11.9258C28.082 11.9258 27.6572 11.7158 27.3154 11.2959C26.4854 10.2803 25.5088 9.77246 24.3857 9.77246C23.1064 9.77246 22.0811 10.3096 21.3096 11.3838C20.6553 12.292 20.3281 13.4248 20.3281 14.7822C20.3281 16.1592 20.6992 17.3115 21.4414 18.2393C22.2617 19.2549 23.2676 19.7627 24.459 19.7627C25.6016 19.7627 26.6367 19.1816 27.5645 18.0195C27.8574 17.6387 28.2334 17.4482 28.6924 17.4482C29.1221 17.4482 29.5273 17.6143 29.9082 17.9463C30.3477 18.3174 30.5674 18.7959 30.5674 19.3818C30.5674 19.8994 30.3428 20.417 29.8936 20.9346C28.6631 22.3506 26.8516 23.0586 24.459 23.0586C22.0176 23.0586 20.0449 22.248 18.541 20.627C17.1152 19.0938 16.4023 17.1309 16.4023 14.7383C16.4023 13.2148 16.7393 11.8281 17.4131 10.5781C18.4678 8.61523 20.0791 7.35547 22.2471 6.79883C22.9404 6.62305 23.6631 6.53516 24.415 6.53516ZM37.9648 14.2109V21.2568C37.9648 21.6768 37.8281 22.0283 37.5547 22.3115C37.1836 22.6924 36.6855 22.8828 36.0605 22.8828C35.3184 22.8828 34.7764 22.6289 34.4346 22.1211C34.2686 21.877 34.1855 21.5889 34.1855 21.2568V8.23438C34.1855 7.84375 34.3076 7.51172 34.5518 7.23828C34.9033 6.86719 35.377 6.68164 35.9727 6.68164C36.7246 6.68164 37.252 6.96484 37.5547 7.53125C37.6719 7.73633 37.7305 7.9707 37.7305 8.23438V9.77246C38.2285 8.91309 38.7266 8.24902 39.2246 7.78027C40.1426 6.94043 41.2412 6.52051 42.5205 6.52051C43.5264 6.52051 44.3906 6.83789 45.1133 7.47266C45.6309 7.93164 45.8896 8.4541 45.8896 9.04004C45.8896 9.45996 45.748 9.85059 45.4648 10.2119C45.0742 10.71 44.5713 10.959 43.9561 10.959C43.5557 10.959 43.2188 10.8516 42.9453 10.6367C42.584 10.3535 42.1641 10.2119 41.6855 10.2119C40.2305 10.2119 38.9902 11.5449 37.9648 14.2109ZM59.4102 20.1729C58.1504 22.0576 56.3389 23 53.9756 23C52.1104 23 50.6553 22.3262 49.6104 20.9785C48.7998 19.9434 48.3945 18.4492 48.3945 16.4961V8.36621C48.3945 7.97559 48.5117 7.64355 48.7461 7.37012C49.1172 6.9502 49.6396 6.74023 50.3135 6.74023C51.0752 6.74023 51.627 7.00391 51.9688 7.53125C52.125 7.77539 52.2031 8.05371 52.2031 8.36621V16.1299C52.2031 16.9893 52.335 17.7021 52.5986 18.2686C53.0283 19.2061 53.7461 19.6748 54.752 19.6748C55.875 19.6748 56.9102 19.1133 57.8574 17.9902C58.5703 17.1406 58.9268 16.291 58.9268 15.4414V8.36621C58.9268 7.94629 59.0635 7.59473 59.3369 7.31152C59.6982 6.93066 60.2012 6.74023 60.8457 6.74023C61.6074 6.74023 62.1592 7.00391 62.501 7.53125C62.6572 7.77539 62.7354 8.05371 62.7354 8.36621V21.3154C62.7354 21.7061 62.6426 22.0381 62.457 22.3115C62.1836 22.7119 61.7588 22.9121 61.1826 22.9121C60.2549 22.9121 59.7227 22.4238 59.5859 21.4473L59.4102 20.1729ZM71.1436 9.11328C72.0811 7.45313 73.5215 6.62305 75.4648 6.62305C76.4512 6.62305 77.3154 6.8916 78.0576 7.42871C78.6533 7.8584 79.0928 8.45898 79.376 9.23047C80.4795 7.49219 82.0762 6.62305 84.166 6.62305C86.002 6.62305 87.3447 7.43359 88.1943 9.05469C88.7119 10.041 88.9707 11.2471 88.9707 12.6729V21.2861C88.9707 21.7061 88.834 22.0527 88.5605 22.3262C88.1992 22.6973 87.7061 22.8828 87.0811 22.8828C86.251 22.8828 85.6895 22.5752 85.3965 21.96C85.2988 21.7646 85.25 21.54 85.25 21.2861V13.0391C85.25 12.3555 85.1328 11.75 84.8984 11.2227C84.5176 10.373 83.9365 9.94824 83.1553 9.94824C82.4424 9.94824 81.7783 10.3047 81.1631 11.0176C80.5088 11.7891 80.1816 12.6533 80.1816 13.6104V21.3154C80.1816 21.6963 80.0547 22.0283 79.8008 22.3115C79.4395 22.6924 78.9463 22.8828 78.3213 22.8828C77.54 22.8828 76.9834 22.6045 76.6514 22.0479C76.5244 21.8428 76.4609 21.5986 76.4609 21.3154V13.1855C76.4609 12.3652 76.334 11.6768 76.0801 11.1201C75.7285 10.3389 75.1963 9.94824 74.4834 9.94824C73.7412 9.94824 73.0527 10.3438 72.418 11.1348C71.7734 11.9453 71.4512 12.8389 71.4512 13.8154V21.2861C71.4512 21.6768 71.334 22.0039 71.0996 22.2676C70.7285 22.6777 70.2207 22.8828 69.5762 22.8828C68.7656 22.8828 68.2041 22.5898 67.8916 22.0039C67.7842 21.7988 67.7305 21.5596 67.7305 21.2861V8.26367C67.7305 7.86328 67.8574 7.52637 68.1113 7.25293C68.4238 6.91113 68.8242 6.74023 69.3125 6.74023C70.3574 6.74023 70.9385 7.25781 71.0557 8.29297L71.1436 9.11328ZM98.3018 8.36621V21.2275C98.3018 21.6279 98.1797 21.9648 97.9355 22.2383C97.5645 22.668 97.042 22.8828 96.3682 22.8828C95.6064 22.8828 95.0498 22.6143 94.6982 22.0771C94.542 21.833 94.4639 21.5498 94.4639 21.2275V8.36621C94.4639 7.78027 94.7178 7.33594 95.2256 7.0332C95.5771 6.81836 95.9629 6.71094 96.3828 6.71094C96.8809 6.71094 97.3203 6.85254 97.7012 7.13574C98.1016 7.44824 98.3018 7.8584 98.3018 8.36621ZM96.3975 0.133789C96.8271 0.133789 97.2373 0.255859 97.6279 0.5C98.3994 0.958984 98.7852 1.6377 98.7852 2.53613C98.7852 3.16113 98.5703 3.70313 98.1406 4.16211C97.6719 4.67969 97.0811 4.93848 96.3682 4.93848C95.9678 4.93848 95.5869 4.84082 95.2256 4.64551C94.3955 4.17676 93.9805 3.46875 93.9805 2.52148C93.9805 1.7793 94.2588 1.17383 94.8154 0.705078C95.2744 0.324219 95.8018 0.133789 96.3975 0.133789ZM107.149 9.34766C107.706 8.5957 108.365 8 109.127 7.56055C110.191 6.93555 111.314 6.62305 112.496 6.62305C114.264 6.62305 115.675 7.21875 116.729 8.41016C117.667 9.45508 118.136 11.0176 118.136 13.0977V21.2568C118.136 21.6475 118.019 21.9795 117.784 22.2529C117.413 22.6729 116.891 22.8828 116.217 22.8828C115.455 22.8828 114.903 22.6191 114.562 22.0918C114.405 21.8477 114.327 21.5693 114.327 21.2568V13.5225C114.327 12.6631 114.19 11.9404 113.917 11.3545C113.478 10.417 112.76 9.94824 111.764 9.94824C110.709 9.94824 109.703 10.4951 108.746 11.5889C107.984 12.4482 107.604 13.332 107.604 14.2402V21.2568C107.604 21.6768 107.467 22.0283 107.193 22.3115C106.822 22.6924 106.324 22.8828 105.699 22.8828C104.928 22.8828 104.371 22.6191 104.029 22.0918C103.873 21.8574 103.795 21.5791 103.795 21.2568V8.29297C103.795 7.90234 103.888 7.5752 104.073 7.31152C104.347 6.91113 104.767 6.71094 105.333 6.71094C106.231 6.71094 106.769 7.19922 106.944 8.17578L107.149 9.34766ZM133.722 8.60059V1.93555C133.722 1.55469 133.839 1.22754 134.073 0.954102C134.435 0.53418 134.952 0.324219 135.626 0.324219C136.378 0.324219 136.925 0.587891 137.267 1.11523C137.423 1.35938 137.501 1.63281 137.501 1.93555V21.2861C137.501 21.7256 137.394 22.0771 137.179 22.3408C136.886 22.7021 136.466 22.8828 135.919 22.8828C135.03 22.8828 134.498 22.4141 134.322 21.4766L134.088 20.2168C133.697 20.9688 133.165 21.5693 132.491 22.0186C131.505 22.6729 130.353 23 129.034 23C126.544 23 124.625 21.9941 123.277 19.9824C122.32 18.5566 121.842 16.8232 121.842 14.7822C121.842 12.79 122.359 11.0664 123.395 9.61133C124.811 7.61914 126.725 6.62305 129.137 6.62305C131.148 6.62305 132.677 7.28223 133.722 8.60059ZM133.751 15.0459V13.874C133.751 12.3896 133.097 11.2324 131.788 10.4023C131.163 10.002 130.489 9.80176 129.767 9.80176C128.507 9.80176 127.501 10.3242 126.749 11.3691C126.095 12.2773 125.768 13.415 125.768 14.7822C125.768 15.9639 125.997 16.9697 126.456 17.7998C127.188 19.1279 128.277 19.792 129.723 19.792C130.67 19.792 131.515 19.4209 132.257 18.6787C133.253 17.7021 133.751 16.4912 133.751 15.0459Z" fill="url(#paint0_linear)"/>
<defs>
<linearGradient id="paint0_linear" x1="-3.56186" y1="13.5" x2="141" y2="13.5" gradientUnits="userSpaceOnUse">
<stop offset="0.0833333" stop-color="#3091FF"/>
<stop offset="0.921875" stop-color="#6FBAFF"/>
</linearGradient>
</defs>
</svg>
