<svg width="14" height="14" viewBox="0 0 14 14" fill="none" xmlns="http://www.w3.org/2000/svg">
<path d="M0.710972 0.711247C0.798058 0.623941 0.901512 0.554673 1.01541 0.507411C1.12931 0.460148 1.25141 0.435822 1.37472 0.435822C1.49804 0.435822 1.62014 0.460148 1.73404 0.507411C1.84793 0.554673 1.95139 0.623941 2.03847 0.711247L6.99972 5.67437L11.961 0.711247C12.0481 0.624082 12.1516 0.554939 12.2655 0.507766C12.3794 0.460592 12.5015 0.436312 12.6247 0.436312C12.748 0.436312 12.8701 0.460592 12.9839 0.507766C13.0978 0.554939 13.2013 0.624082 13.2885 0.711247C13.3756 0.798412 13.4448 0.901891 13.492 1.01578C13.5391 1.12966 13.5634 1.25173 13.5634 1.375C13.5634 1.49827 13.5391 1.62033 13.492 1.73422C13.4448 1.8481 13.3756 1.95158 13.2885 2.03875L8.32535 7L13.2885 11.9612C13.3756 12.0484 13.4448 12.1519 13.492 12.2658C13.5391 12.3797 13.5634 12.5017 13.5634 12.625C13.5634 12.7483 13.5391 12.8703 13.492 12.9842C13.4448 13.0981 13.3756 13.2016 13.2885 13.2887C13.2013 13.3759 13.0978 13.4451 12.9839 13.4922C12.8701 13.5394 12.748 13.5637 12.6247 13.5637C12.5015 13.5637 12.3794 13.5394 12.2655 13.4922C12.1516 13.4451 12.0481 13.3759 11.961 13.2887L6.99972 8.32562L2.03847 13.2887C1.95131 13.3759 1.84783 13.4451 1.73394 13.4922C1.62006 13.5394 1.49799 13.5637 1.37472 13.5637C1.25145 13.5637 1.12939 13.5394 1.0155 13.4922C0.901617 13.4451 0.798137 13.3759 0.710972 13.2887C0.623807 13.2016 0.554664 13.0981 0.507491 12.9842C0.460318 12.8703 0.436038 12.7483 0.436038 12.625C0.436038 12.5017 0.460318 12.3797 0.507491 12.2658C0.554664 12.1519 0.623807 12.0484 0.710972 11.9612L5.6741 7L0.710972 2.03875C0.623666 1.95166 0.554398 1.84821 0.507136 1.73431C0.459874 1.62041 0.435547 1.49831 0.435547 1.375C0.435547 1.25168 0.459874 1.12958 0.507136 1.01568C0.554398 0.901787 0.623666 0.798332 0.710972 0.711247Z" fill="#0061BA"/>
</svg>
